<?xml version="1.0" encoding="utf-8" standalone="no"?>
<!DOCTYPE svg PUBLIC "-//W3C//DTD SVG 1.1//EN"
  "http://www.w3.org/Graphics/SVG/1.1/DTD/svg11.dtd">
<svg height="325.8275pt" version="1.1" viewBox="0 0 389.6525 325.8275" width="389.6525pt" xmlns="http://www.w3.org/2000/svg" xmlns:xlink="http://www.w3.org/1999/xlink">
 <metadata>
  <rdf:RDF xmlns:cc="http://creativecommons.org/ns#" xmlns:dc="http://purl.org/dc/elements/1.1/" xmlns:rdf="http://www.w3.org/1999/02/22-rdf-syntax-ns#">
   <cc:Work>
    <dc:type rdf:resource="http://purl.org/dc/dcmitype/StillImage"/>
    <dc:date>2022-03-11T18:37:44.986612</dc:date>
    <dc:format>image/svg+xml</dc:format>
    <dc:creator>
     <cc:Agent>
      <dc:title>Matplotlib v3.4.3, https://matplotlib.org/</dc:title>
     </cc:Agent>
    </dc:creator>
   </cc:Work>
  </rdf:RDF>
 </metadata>
 <defs>
  <style type="text/css">*{stroke-linecap:butt;stroke-linejoin:round;}</style>
 </defs>
 <g id="figure_1">
  <g id="patch_1">
   <path d="M 0 325.8275 
L 389.6525 325.8275 
L 389.6525 0 
L 0 0 
z
" style="fill:#ffffff;"/>
  </g>
  <g id="axes_1">
   <g id="patch_2">
    <path d="M 47.6525 284.4 
L 382.4525 284.4 
L 382.4525 7.2 
L 47.6525 7.2 
z
" style="fill:#ffffff;"/>
   </g>
   <g id="matplotlib.axis_1">
    <g id="xtick_1">
     <g id="line2d_1">
      <defs>
       <path d="M 0 0 
L 0 3.5 
" id="mde710ea3fb" style="stroke:#000000;stroke-width:0.8;"/>
      </defs>
      <g>
       <use style="stroke:#000000;stroke-width:0.8;" x="90.540103" xlink:href="#mde710ea3fb" y="284.4"/>
      </g>
     </g>
     <g id="text_1">
      <!-- 450 -->
      <g transform="translate(80.996353 298.998438)scale(0.1 -0.1)">
       <defs>
        <path d="M 2419 4116 
L 825 1625 
L 2419 1625 
L 2419 4116 
z
M 2253 4666 
L 3047 4666 
L 3047 1625 
L 3713 1625 
L 3713 1100 
L 3047 1100 
L 3047 0 
L 2419 0 
L 2419 1100 
L 313 1100 
L 313 1709 
L 2253 4666 
z
" id="DejaVuSans-34" transform="scale(0.015625)"/>
        <path d="M 691 4666 
L 3169 4666 
L 3169 4134 
L 1269 4134 
L 1269 2991 
Q 1406 3038 1543 3061 
Q 1681 3084 1819 3084 
Q 2600 3084 3056 2656 
Q 3513 2228 3513 1497 
Q 3513 744 3044 326 
Q 2575 -91 1722 -91 
Q 1428 -91 1123 -41 
Q 819 9 494 109 
L 494 744 
Q 775 591 1075 516 
Q 1375 441 1709 441 
Q 2250 441 2565 725 
Q 2881 1009 2881 1497 
Q 2881 1984 2565 2268 
Q 2250 2553 1709 2553 
Q 1456 2553 1204 2497 
Q 953 2441 691 2322 
L 691 4666 
z
" id="DejaVuSans-35" transform="scale(0.015625)"/>
        <path d="M 2034 4250 
Q 1547 4250 1301 3770 
Q 1056 3291 1056 2328 
Q 1056 1369 1301 889 
Q 1547 409 2034 409 
Q 2525 409 2770 889 
Q 3016 1369 3016 2328 
Q 3016 3291 2770 3770 
Q 2525 4250 2034 4250 
z
M 2034 4750 
Q 2819 4750 3233 4129 
Q 3647 3509 3647 2328 
Q 3647 1150 3233 529 
Q 2819 -91 2034 -91 
Q 1250 -91 836 529 
Q 422 1150 422 2328 
Q 422 3509 836 4129 
Q 1250 4750 2034 4750 
z
" id="DejaVuSans-30" transform="scale(0.015625)"/>
       </defs>
       <use xlink:href="#DejaVuSans-34"/>
       <use x="63.623047" xlink:href="#DejaVuSans-35"/>
       <use x="127.246094" xlink:href="#DejaVuSans-30"/>
      </g>
     </g>
    </g>
    <g id="xtick_2">
     <g id="line2d_2">
      <g>
       <use style="stroke:#000000;stroke-width:0.8;" x="159.713657" xlink:href="#mde710ea3fb" y="284.4"/>
      </g>
     </g>
     <g id="text_2">
      <!-- 500 -->
      <g transform="translate(150.169907 298.998438)scale(0.1 -0.1)">
       <use xlink:href="#DejaVuSans-35"/>
       <use x="63.623047" xlink:href="#DejaVuSans-30"/>
       <use x="127.246094" xlink:href="#DejaVuSans-30"/>
      </g>
     </g>
    </g>
    <g id="xtick_3">
     <g id="line2d_3">
      <g>
       <use style="stroke:#000000;stroke-width:0.8;" x="228.887211" xlink:href="#mde710ea3fb" y="284.4"/>
      </g>
     </g>
     <g id="text_3">
      <!-- 550 -->
      <g transform="translate(219.343461 298.998438)scale(0.1 -0.1)">
       <use xlink:href="#DejaVuSans-35"/>
       <use x="63.623047" xlink:href="#DejaVuSans-35"/>
       <use x="127.246094" xlink:href="#DejaVuSans-30"/>
      </g>
     </g>
    </g>
    <g id="xtick_4">
     <g id="line2d_4">
      <g>
       <use style="stroke:#000000;stroke-width:0.8;" x="298.060764" xlink:href="#mde710ea3fb" y="284.4"/>
      </g>
     </g>
     <g id="text_4">
      <!-- 600 -->
      <g transform="translate(288.517014 298.998438)scale(0.1 -0.1)">
       <defs>
        <path d="M 2113 2584 
Q 1688 2584 1439 2293 
Q 1191 2003 1191 1497 
Q 1191 994 1439 701 
Q 1688 409 2113 409 
Q 2538 409 2786 701 
Q 3034 994 3034 1497 
Q 3034 2003 2786 2293 
Q 2538 2584 2113 2584 
z
M 3366 4563 
L 3366 3988 
Q 3128 4100 2886 4159 
Q 2644 4219 2406 4219 
Q 1781 4219 1451 3797 
Q 1122 3375 1075 2522 
Q 1259 2794 1537 2939 
Q 1816 3084 2150 3084 
Q 2853 3084 3261 2657 
Q 3669 2231 3669 1497 
Q 3669 778 3244 343 
Q 2819 -91 2113 -91 
Q 1303 -91 875 529 
Q 447 1150 447 2328 
Q 447 3434 972 4092 
Q 1497 4750 2381 4750 
Q 2619 4750 2861 4703 
Q 3103 4656 3366 4563 
z
" id="DejaVuSans-36" transform="scale(0.015625)"/>
       </defs>
       <use xlink:href="#DejaVuSans-36"/>
       <use x="63.623047" xlink:href="#DejaVuSans-30"/>
       <use x="127.246094" xlink:href="#DejaVuSans-30"/>
      </g>
     </g>
    </g>
    <g id="xtick_5">
     <g id="line2d_5">
      <g>
       <use style="stroke:#000000;stroke-width:0.8;" x="367.234318" xlink:href="#mde710ea3fb" y="284.4"/>
      </g>
     </g>
     <g id="text_5">
      <!-- 650 -->
      <g transform="translate(357.690568 298.998438)scale(0.1 -0.1)">
       <use xlink:href="#DejaVuSans-36"/>
       <use x="63.623047" xlink:href="#DejaVuSans-35"/>
       <use x="127.246094" xlink:href="#DejaVuSans-30"/>
      </g>
     </g>
    </g>
    <g id="text_6">
     <!-- Wavelength (nm) -->
     <g transform="translate(154.583438 315.715938)scale(0.14 -0.14)">
      <defs>
       <path d="M 213 4666 
L 850 4666 
L 1831 722 
L 2809 4666 
L 3519 4666 
L 4500 722 
L 5478 4666 
L 6119 4666 
L 4947 0 
L 4153 0 
L 3169 4050 
L 2175 0 
L 1381 0 
L 213 4666 
z
" id="DejaVuSans-57" transform="scale(0.015625)"/>
       <path d="M 2194 1759 
Q 1497 1759 1228 1600 
Q 959 1441 959 1056 
Q 959 750 1161 570 
Q 1363 391 1709 391 
Q 2188 391 2477 730 
Q 2766 1069 2766 1631 
L 2766 1759 
L 2194 1759 
z
M 3341 1997 
L 3341 0 
L 2766 0 
L 2766 531 
Q 2569 213 2275 61 
Q 1981 -91 1556 -91 
Q 1019 -91 701 211 
Q 384 513 384 1019 
Q 384 1609 779 1909 
Q 1175 2209 1959 2209 
L 2766 2209 
L 2766 2266 
Q 2766 2663 2505 2880 
Q 2244 3097 1772 3097 
Q 1472 3097 1187 3025 
Q 903 2953 641 2809 
L 641 3341 
Q 956 3463 1253 3523 
Q 1550 3584 1831 3584 
Q 2591 3584 2966 3190 
Q 3341 2797 3341 1997 
z
" id="DejaVuSans-61" transform="scale(0.015625)"/>
       <path d="M 191 3500 
L 800 3500 
L 1894 563 
L 2988 3500 
L 3597 3500 
L 2284 0 
L 1503 0 
L 191 3500 
z
" id="DejaVuSans-76" transform="scale(0.015625)"/>
       <path d="M 3597 1894 
L 3597 1613 
L 953 1613 
Q 991 1019 1311 708 
Q 1631 397 2203 397 
Q 2534 397 2845 478 
Q 3156 559 3463 722 
L 3463 178 
Q 3153 47 2828 -22 
Q 2503 -91 2169 -91 
Q 1331 -91 842 396 
Q 353 884 353 1716 
Q 353 2575 817 3079 
Q 1281 3584 2069 3584 
Q 2775 3584 3186 3129 
Q 3597 2675 3597 1894 
z
M 3022 2063 
Q 3016 2534 2758 2815 
Q 2500 3097 2075 3097 
Q 1594 3097 1305 2825 
Q 1016 2553 972 2059 
L 3022 2063 
z
" id="DejaVuSans-65" transform="scale(0.015625)"/>
       <path d="M 603 4863 
L 1178 4863 
L 1178 0 
L 603 0 
L 603 4863 
z
" id="DejaVuSans-6c" transform="scale(0.015625)"/>
       <path d="M 3513 2113 
L 3513 0 
L 2938 0 
L 2938 2094 
Q 2938 2591 2744 2837 
Q 2550 3084 2163 3084 
Q 1697 3084 1428 2787 
Q 1159 2491 1159 1978 
L 1159 0 
L 581 0 
L 581 3500 
L 1159 3500 
L 1159 2956 
Q 1366 3272 1645 3428 
Q 1925 3584 2291 3584 
Q 2894 3584 3203 3211 
Q 3513 2838 3513 2113 
z
" id="DejaVuSans-6e" transform="scale(0.015625)"/>
       <path d="M 2906 1791 
Q 2906 2416 2648 2759 
Q 2391 3103 1925 3103 
Q 1463 3103 1205 2759 
Q 947 2416 947 1791 
Q 947 1169 1205 825 
Q 1463 481 1925 481 
Q 2391 481 2648 825 
Q 2906 1169 2906 1791 
z
M 3481 434 
Q 3481 -459 3084 -895 
Q 2688 -1331 1869 -1331 
Q 1566 -1331 1297 -1286 
Q 1028 -1241 775 -1147 
L 775 -588 
Q 1028 -725 1275 -790 
Q 1522 -856 1778 -856 
Q 2344 -856 2625 -561 
Q 2906 -266 2906 331 
L 2906 616 
Q 2728 306 2450 153 
Q 2172 0 1784 0 
Q 1141 0 747 490 
Q 353 981 353 1791 
Q 353 2603 747 3093 
Q 1141 3584 1784 3584 
Q 2172 3584 2450 3431 
Q 2728 3278 2906 2969 
L 2906 3500 
L 3481 3500 
L 3481 434 
z
" id="DejaVuSans-67" transform="scale(0.015625)"/>
       <path d="M 1172 4494 
L 1172 3500 
L 2356 3500 
L 2356 3053 
L 1172 3053 
L 1172 1153 
Q 1172 725 1289 603 
Q 1406 481 1766 481 
L 2356 481 
L 2356 0 
L 1766 0 
Q 1100 0 847 248 
Q 594 497 594 1153 
L 594 3053 
L 172 3053 
L 172 3500 
L 594 3500 
L 594 4494 
L 1172 4494 
z
" id="DejaVuSans-74" transform="scale(0.015625)"/>
       <path d="M 3513 2113 
L 3513 0 
L 2938 0 
L 2938 2094 
Q 2938 2591 2744 2837 
Q 2550 3084 2163 3084 
Q 1697 3084 1428 2787 
Q 1159 2491 1159 1978 
L 1159 0 
L 581 0 
L 581 4863 
L 1159 4863 
L 1159 2956 
Q 1366 3272 1645 3428 
Q 1925 3584 2291 3584 
Q 2894 3584 3203 3211 
Q 3513 2838 3513 2113 
z
" id="DejaVuSans-68" transform="scale(0.015625)"/>
       <path id="DejaVuSans-20" transform="scale(0.015625)"/>
       <path d="M 1984 4856 
Q 1566 4138 1362 3434 
Q 1159 2731 1159 2009 
Q 1159 1288 1364 580 
Q 1569 -128 1984 -844 
L 1484 -844 
Q 1016 -109 783 600 
Q 550 1309 550 2009 
Q 550 2706 781 3412 
Q 1013 4119 1484 4856 
L 1984 4856 
z
" id="DejaVuSans-28" transform="scale(0.015625)"/>
       <path d="M 3328 2828 
Q 3544 3216 3844 3400 
Q 4144 3584 4550 3584 
Q 5097 3584 5394 3201 
Q 5691 2819 5691 2113 
L 5691 0 
L 5113 0 
L 5113 2094 
Q 5113 2597 4934 2840 
Q 4756 3084 4391 3084 
Q 3944 3084 3684 2787 
Q 3425 2491 3425 1978 
L 3425 0 
L 2847 0 
L 2847 2094 
Q 2847 2600 2669 2842 
Q 2491 3084 2119 3084 
Q 1678 3084 1418 2786 
Q 1159 2488 1159 1978 
L 1159 0 
L 581 0 
L 581 3500 
L 1159 3500 
L 1159 2956 
Q 1356 3278 1631 3431 
Q 1906 3584 2284 3584 
Q 2666 3584 2933 3390 
Q 3200 3197 3328 2828 
z
" id="DejaVuSans-6d" transform="scale(0.015625)"/>
       <path d="M 513 4856 
L 1013 4856 
Q 1481 4119 1714 3412 
Q 1947 2706 1947 2009 
Q 1947 1309 1714 600 
Q 1481 -109 1013 -844 
L 513 -844 
Q 928 -128 1133 580 
Q 1338 1288 1338 2009 
Q 1338 2731 1133 3434 
Q 928 4138 513 4856 
z
" id="DejaVuSans-29" transform="scale(0.015625)"/>
      </defs>
      <use xlink:href="#DejaVuSans-57"/>
      <use x="92.501953" xlink:href="#DejaVuSans-61"/>
      <use x="153.78125" xlink:href="#DejaVuSans-76"/>
      <use x="212.960938" xlink:href="#DejaVuSans-65"/>
      <use x="274.484375" xlink:href="#DejaVuSans-6c"/>
      <use x="302.267578" xlink:href="#DejaVuSans-65"/>
      <use x="363.791016" xlink:href="#DejaVuSans-6e"/>
      <use x="427.169922" xlink:href="#DejaVuSans-67"/>
      <use x="490.646484" xlink:href="#DejaVuSans-74"/>
      <use x="529.855469" xlink:href="#DejaVuSans-68"/>
      <use x="593.234375" xlink:href="#DejaVuSans-20"/>
      <use x="625.021484" xlink:href="#DejaVuSans-28"/>
      <use x="664.035156" xlink:href="#DejaVuSans-6e"/>
      <use x="727.414062" xlink:href="#DejaVuSans-6d"/>
      <use x="824.826172" xlink:href="#DejaVuSans-29"/>
     </g>
    </g>
   </g>
   <g id="matplotlib.axis_2">
    <g id="ytick_1">
     <g id="line2d_6">
      <defs>
       <path d="M 0 0 
L -3.5 0 
" id="ma1c9bafe49" style="stroke:#000000;stroke-width:0.8;"/>
      </defs>
      <g>
       <use style="stroke:#000000;stroke-width:0.8;" x="47.6525" xlink:href="#ma1c9bafe49" y="284.4"/>
      </g>
     </g>
     <g id="text_7">
      <!-- 0.0 -->
      <g transform="translate(24.749375 288.199219)scale(0.1 -0.1)">
       <defs>
        <path d="M 684 794 
L 1344 794 
L 1344 0 
L 684 0 
L 684 794 
z
" id="DejaVuSans-2e" transform="scale(0.015625)"/>
       </defs>
       <use xlink:href="#DejaVuSans-30"/>
       <use x="63.623047" xlink:href="#DejaVuSans-2e"/>
       <use x="95.410156" xlink:href="#DejaVuSans-30"/>
      </g>
     </g>
    </g>
    <g id="ytick_2">
     <g id="line2d_7">
      <g>
       <use style="stroke:#000000;stroke-width:0.8;" x="47.6525" xlink:href="#ma1c9bafe49" y="234.268357"/>
      </g>
     </g>
     <g id="text_8">
      <!-- 0.2 -->
      <g transform="translate(24.749375 238.067576)scale(0.1 -0.1)">
       <defs>
        <path d="M 1228 531 
L 3431 531 
L 3431 0 
L 469 0 
L 469 531 
Q 828 903 1448 1529 
Q 2069 2156 2228 2338 
Q 2531 2678 2651 2914 
Q 2772 3150 2772 3378 
Q 2772 3750 2511 3984 
Q 2250 4219 1831 4219 
Q 1534 4219 1204 4116 
Q 875 4013 500 3803 
L 500 4441 
Q 881 4594 1212 4672 
Q 1544 4750 1819 4750 
Q 2544 4750 2975 4387 
Q 3406 4025 3406 3419 
Q 3406 3131 3298 2873 
Q 3191 2616 2906 2266 
Q 2828 2175 2409 1742 
Q 1991 1309 1228 531 
z
" id="DejaVuSans-32" transform="scale(0.015625)"/>
       </defs>
       <use xlink:href="#DejaVuSans-30"/>
       <use x="63.623047" xlink:href="#DejaVuSans-2e"/>
       <use x="95.410156" xlink:href="#DejaVuSans-32"/>
      </g>
     </g>
    </g>
    <g id="ytick_3">
     <g id="line2d_8">
      <g>
       <use style="stroke:#000000;stroke-width:0.8;" x="47.6525" xlink:href="#ma1c9bafe49" y="184.136714"/>
      </g>
     </g>
     <g id="text_9">
      <!-- 0.4 -->
      <g transform="translate(24.749375 187.935933)scale(0.1 -0.1)">
       <use xlink:href="#DejaVuSans-30"/>
       <use x="63.623047" xlink:href="#DejaVuSans-2e"/>
       <use x="95.410156" xlink:href="#DejaVuSans-34"/>
      </g>
     </g>
    </g>
    <g id="ytick_4">
     <g id="line2d_9">
      <g>
       <use style="stroke:#000000;stroke-width:0.8;" x="47.6525" xlink:href="#ma1c9bafe49" y="134.005071"/>
      </g>
     </g>
     <g id="text_10">
      <!-- 0.6 -->
      <g transform="translate(24.749375 137.80429)scale(0.1 -0.1)">
       <use xlink:href="#DejaVuSans-30"/>
       <use x="63.623047" xlink:href="#DejaVuSans-2e"/>
       <use x="95.410156" xlink:href="#DejaVuSans-36"/>
      </g>
     </g>
    </g>
    <g id="ytick_5">
     <g id="line2d_10">
      <g>
       <use style="stroke:#000000;stroke-width:0.8;" x="47.6525" xlink:href="#ma1c9bafe49" y="83.873428"/>
      </g>
     </g>
     <g id="text_11">
      <!-- 0.8 -->
      <g transform="translate(24.749375 87.672647)scale(0.1 -0.1)">
       <defs>
        <path d="M 2034 2216 
Q 1584 2216 1326 1975 
Q 1069 1734 1069 1313 
Q 1069 891 1326 650 
Q 1584 409 2034 409 
Q 2484 409 2743 651 
Q 3003 894 3003 1313 
Q 3003 1734 2745 1975 
Q 2488 2216 2034 2216 
z
M 1403 2484 
Q 997 2584 770 2862 
Q 544 3141 544 3541 
Q 544 4100 942 4425 
Q 1341 4750 2034 4750 
Q 2731 4750 3128 4425 
Q 3525 4100 3525 3541 
Q 3525 3141 3298 2862 
Q 3072 2584 2669 2484 
Q 3125 2378 3379 2068 
Q 3634 1759 3634 1313 
Q 3634 634 3220 271 
Q 2806 -91 2034 -91 
Q 1263 -91 848 271 
Q 434 634 434 1313 
Q 434 1759 690 2068 
Q 947 2378 1403 2484 
z
M 1172 3481 
Q 1172 3119 1398 2916 
Q 1625 2713 2034 2713 
Q 2441 2713 2670 2916 
Q 2900 3119 2900 3481 
Q 2900 3844 2670 4047 
Q 2441 4250 2034 4250 
Q 1625 4250 1398 4047 
Q 1172 3844 1172 3481 
z
" id="DejaVuSans-38" transform="scale(0.015625)"/>
       </defs>
       <use xlink:href="#DejaVuSans-30"/>
       <use x="63.623047" xlink:href="#DejaVuSans-2e"/>
       <use x="95.410156" xlink:href="#DejaVuSans-38"/>
      </g>
     </g>
    </g>
    <g id="ytick_6">
     <g id="line2d_11">
      <g>
       <use style="stroke:#000000;stroke-width:0.8;" x="47.6525" xlink:href="#ma1c9bafe49" y="33.741785"/>
      </g>
     </g>
     <g id="text_12">
      <!-- 1.0 -->
      <g transform="translate(24.749375 37.541004)scale(0.1 -0.1)">
       <defs>
        <path d="M 794 531 
L 1825 531 
L 1825 4091 
L 703 3866 
L 703 4441 
L 1819 4666 
L 2450 4666 
L 2450 531 
L 3481 531 
L 3481 0 
L 794 0 
L 794 531 
z
" id="DejaVuSans-31" transform="scale(0.015625)"/>
       </defs>
       <use xlink:href="#DejaVuSans-31"/>
       <use x="63.623047" xlink:href="#DejaVuSans-2e"/>
       <use x="95.410156" xlink:href="#DejaVuSans-30"/>
      </g>
     </g>
    </g>
    <g id="text_13">
     <!-- Radiance -->
     <g transform="translate(17.837812 178.066719)rotate(-90)scale(0.14 -0.14)">
      <defs>
       <path d="M 2841 2188 
Q 3044 2119 3236 1894 
Q 3428 1669 3622 1275 
L 4263 0 
L 3584 0 
L 2988 1197 
Q 2756 1666 2539 1819 
Q 2322 1972 1947 1972 
L 1259 1972 
L 1259 0 
L 628 0 
L 628 4666 
L 2053 4666 
Q 2853 4666 3247 4331 
Q 3641 3997 3641 3322 
Q 3641 2881 3436 2590 
Q 3231 2300 2841 2188 
z
M 1259 4147 
L 1259 2491 
L 2053 2491 
Q 2509 2491 2742 2702 
Q 2975 2913 2975 3322 
Q 2975 3731 2742 3939 
Q 2509 4147 2053 4147 
L 1259 4147 
z
" id="DejaVuSans-52" transform="scale(0.015625)"/>
       <path d="M 2906 2969 
L 2906 4863 
L 3481 4863 
L 3481 0 
L 2906 0 
L 2906 525 
Q 2725 213 2448 61 
Q 2172 -91 1784 -91 
Q 1150 -91 751 415 
Q 353 922 353 1747 
Q 353 2572 751 3078 
Q 1150 3584 1784 3584 
Q 2172 3584 2448 3432 
Q 2725 3281 2906 2969 
z
M 947 1747 
Q 947 1113 1208 752 
Q 1469 391 1925 391 
Q 2381 391 2643 752 
Q 2906 1113 2906 1747 
Q 2906 2381 2643 2742 
Q 2381 3103 1925 3103 
Q 1469 3103 1208 2742 
Q 947 2381 947 1747 
z
" id="DejaVuSans-64" transform="scale(0.015625)"/>
       <path d="M 603 3500 
L 1178 3500 
L 1178 0 
L 603 0 
L 603 3500 
z
M 603 4863 
L 1178 4863 
L 1178 4134 
L 603 4134 
L 603 4863 
z
" id="DejaVuSans-69" transform="scale(0.015625)"/>
       <path d="M 3122 3366 
L 3122 2828 
Q 2878 2963 2633 3030 
Q 2388 3097 2138 3097 
Q 1578 3097 1268 2742 
Q 959 2388 959 1747 
Q 959 1106 1268 751 
Q 1578 397 2138 397 
Q 2388 397 2633 464 
Q 2878 531 3122 666 
L 3122 134 
Q 2881 22 2623 -34 
Q 2366 -91 2075 -91 
Q 1284 -91 818 406 
Q 353 903 353 1747 
Q 353 2603 823 3093 
Q 1294 3584 2113 3584 
Q 2378 3584 2631 3529 
Q 2884 3475 3122 3366 
z
" id="DejaVuSans-63" transform="scale(0.015625)"/>
      </defs>
      <use xlink:href="#DejaVuSans-52"/>
      <use x="67.232422" xlink:href="#DejaVuSans-61"/>
      <use x="128.511719" xlink:href="#DejaVuSans-64"/>
      <use x="191.988281" xlink:href="#DejaVuSans-69"/>
      <use x="219.771484" xlink:href="#DejaVuSans-61"/>
      <use x="281.050781" xlink:href="#DejaVuSans-6e"/>
      <use x="344.429688" xlink:href="#DejaVuSans-63"/>
      <use x="399.410156" xlink:href="#DejaVuSans-65"/>
     </g>
    </g>
   </g>
   <g id="line2d_12">
    <path clip-path="url(#p8b683cdc07)" d="M 62.870682 202.527525 
L 76.705393 186.045267 
L 90.540103 177.791717 
L 104.374814 170.500153 
L 118.209525 161.508195 
L 132.044236 156.831041 
L 145.878946 143.52171 
L 159.713657 121.010548 
L 173.548368 98.339199 
L 187.383079 76.490206 
L 201.217789 60.695815 
L 215.0525 49.146841 
L 228.887211 45.341728 
L 242.721921 42.571413 
L 256.556632 37.638986 
L 270.391343 27.075983 
L 284.226054 25.432126 
L 298.060764 25.216258 
L 311.895475 22.69779 
L 325.730186 22.69008 
L 339.564897 19.821254 
L 353.399607 19.236182 
L 367.234318 17.076638 
" style="fill:none;stroke:#1f77b4;stroke-linecap:square;stroke-width:3;"/>
   </g>
   <g id="line2d_13">
    <defs>
     <path d="M 0 3 
C 0.795609 3 1.55874 2.683901 2.12132 2.12132 
C 2.683901 1.55874 3 0.795609 3 0 
C 3 -0.795609 2.683901 -1.55874 2.12132 -2.12132 
C 1.55874 -2.683901 0.795609 -3 0 -3 
C -0.795609 -3 -1.55874 -2.683901 -2.12132 -2.12132 
C -2.683901 -1.55874 -3 -0.795609 -3 0 
C -3 0.795609 -2.683901 1.55874 -2.12132 2.12132 
C -1.55874 2.683901 -0.795609 3 0 3 
z
" id="mb4b6088fc5" style="stroke:#ff0000;"/>
    </defs>
    <g clip-path="url(#p8b683cdc07)">
     <use style="fill:#ff0000;stroke:#ff0000;" x="62.870682" xlink:href="#mb4b6088fc5" y="176.469466"/>
     <use style="fill:#ff0000;stroke:#ff0000;" x="76.705393" xlink:href="#mb4b6088fc5" y="183.815074"/>
     <use style="fill:#ff0000;stroke:#ff0000;" x="90.540103" xlink:href="#mb4b6088fc5" y="184.933478"/>
     <use style="fill:#ff0000;stroke:#ff0000;" x="104.374814" xlink:href="#mb4b6088fc5" y="179.262888"/>
     <use style="fill:#ff0000;stroke:#ff0000;" x="118.209525" xlink:href="#mb4b6088fc5" y="166.975771"/>
     <use style="fill:#ff0000;stroke:#ff0000;" x="132.044236" xlink:href="#mb4b6088fc5" y="149.866619"/>
     <use style="fill:#ff0000;stroke:#ff0000;" x="145.878946" xlink:href="#mb4b6088fc5" y="130.792003"/>
     <use style="fill:#ff0000;stroke:#ff0000;" x="159.713657" xlink:href="#mb4b6088fc5" y="111.793305"/>
     <use style="fill:#ff0000;stroke:#ff0000;" x="173.548368" xlink:href="#mb4b6088fc5" y="94.06924"/>
     <use style="fill:#ff0000;stroke:#ff0000;" x="187.383079" xlink:href="#mb4b6088fc5" y="78.833379"/>
     <use style="fill:#ff0000;stroke:#ff0000;" x="201.217789" xlink:href="#mb4b6088fc5" y="65.998902"/>
     <use style="fill:#ff0000;stroke:#ff0000;" x="215.0525" xlink:href="#mb4b6088fc5" y="54.518444"/>
     <use style="fill:#ff0000;stroke:#ff0000;" x="228.887211" xlink:href="#mb4b6088fc5" y="43.811098"/>
     <use style="fill:#ff0000;stroke:#ff0000;" x="242.721921" xlink:href="#mb4b6088fc5" y="33.857186"/>
     <use style="fill:#ff0000;stroke:#ff0000;" x="256.556632" xlink:href="#mb4b6088fc5" y="25.056302"/>
     <use style="fill:#ff0000;stroke:#ff0000;" x="270.391343" xlink:href="#mb4b6088fc5" y="18.944024"/>
     <use style="fill:#ff0000;stroke:#ff0000;" x="284.226054" xlink:href="#mb4b6088fc5" y="16.501311"/>
     <use style="fill:#ff0000;stroke:#ff0000;" x="298.060764" xlink:href="#mb4b6088fc5" y="18.109914"/>
     <use style="fill:#ff0000;stroke:#ff0000;" x="311.895475" xlink:href="#mb4b6088fc5" y="23.61622"/>
     <use style="fill:#ff0000;stroke:#ff0000;" x="325.730186" xlink:href="#mb4b6088fc5" y="31.564377"/>
     <use style="fill:#ff0000;stroke:#ff0000;" x="339.564897" xlink:href="#mb4b6088fc5" y="40.858675"/>
     <use style="fill:#ff0000;stroke:#ff0000;" x="353.399607" xlink:href="#mb4b6088fc5" y="51.156198"/>
     <use style="fill:#ff0000;stroke:#ff0000;" x="367.234318" xlink:href="#mb4b6088fc5" y="62.395414"/>
    </g>
   </g>
   <g id="line2d_14">
    <path clip-path="url(#p8b683cdc07)" d="M 62.870682 176.469466 
L 76.705393 183.815074 
L 90.540103 184.933478 
L 104.374814 179.262888 
L 118.209525 166.975771 
L 132.044236 149.866619 
L 145.878946 130.792003 
L 159.713657 111.793305 
L 173.548368 94.06924 
L 187.383079 78.833379 
L 201.217789 65.998902 
L 215.0525 54.518444 
L 228.887211 43.811098 
L 242.721921 33.857186 
L 256.556632 25.056302 
L 270.391343 18.944024 
L 284.226054 16.501311 
L 298.060764 18.109914 
L 311.895475 23.61622 
L 325.730186 31.564377 
L 339.564897 40.858675 
L 353.399607 51.156198 
L 367.234318 62.395414 
" style="fill:none;stroke:#ff0000;stroke-linecap:square;stroke-width:3;"/>
   </g>
   <g id="line2d_15">
    <path clip-path="url(#p8b683cdc07)" d="M 62.870682 168.337903 
L 76.705393 164.475704 
L 90.540103 176.849296 
L 104.374814 183.546159 
L 118.209525 187.127112 
L 132.044236 180.288393 
L 145.878946 169.522097 
L 159.713657 146.15894 
L 173.548368 116.932789 
L 187.383079 91.584874 
L 201.217789 76.263132 
L 215.0525 72.135724 
L 228.887211 77.269697 
L 242.721921 82.140928 
L 256.556632 85.402395 
L 270.391343 81.968233 
L 284.226054 87.0615 
L 298.060764 92.798672 
L 311.895475 92.865283 
L 325.730186 92.645714 
L 339.564897 93.979166 
L 353.399607 96.713913 
L 367.234318 95.711049 
" style="fill:none;stroke:#ff7f0e;stroke-linecap:square;stroke-width:3;"/>
   </g>
   <g id="line2d_16">
    <defs>
     <path d="M 0 3 
C 0.795609 3 1.55874 2.683901 2.12132 2.12132 
C 2.683901 1.55874 3 0.795609 3 0 
C 3 -0.795609 2.683901 -1.55874 2.12132 -2.12132 
C 1.55874 -2.683901 0.795609 -3 0 -3 
C -0.795609 -3 -1.55874 -2.683901 -2.12132 -2.12132 
C -2.683901 -1.55874 -3 -0.795609 -3 0 
C -3 0.795609 -2.683901 1.55874 -2.12132 2.12132 
C -1.55874 2.683901 -0.795609 3 0 3 
z
" id="m17a119e336" style="stroke:#0000ff;"/>
    </defs>
    <g clip-path="url(#p8b683cdc07)">
     <use style="fill:#0000ff;stroke:#0000ff;" x="62.870682" xlink:href="#m17a119e336" y="173.428512"/>
     <use style="fill:#0000ff;stroke:#0000ff;" x="76.705393" xlink:href="#m17a119e336" y="183.90331"/>
     <use style="fill:#0000ff;stroke:#0000ff;" x="90.540103" xlink:href="#m17a119e336" y="187.535815"/>
     <use style="fill:#0000ff;stroke:#0000ff;" x="104.374814" xlink:href="#m17a119e336" y="183.775601"/>
     <use style="fill:#0000ff;stroke:#0000ff;" x="118.209525" xlink:href="#m17a119e336" y="172.470213"/>
     <use style="fill:#0000ff;stroke:#0000ff;" x="132.044236" xlink:href="#m17a119e336" y="157.077631"/>
     <use style="fill:#0000ff;stroke:#0000ff;" x="145.878946" xlink:href="#m17a119e336" y="140.537965"/>
     <use style="fill:#0000ff;stroke:#0000ff;" x="159.713657" xlink:href="#m17a119e336" y="124.511876"/>
     <use style="fill:#0000ff;stroke:#0000ff;" x="173.548368" xlink:href="#m17a119e336" y="110.272093"/>
     <use style="fill:#0000ff;stroke:#0000ff;" x="187.383079" xlink:href="#m17a119e336" y="99.306571"/>
     <use style="fill:#0000ff;stroke:#0000ff;" x="201.217789" xlink:href="#m17a119e336" y="91.657866"/>
     <use style="fill:#0000ff;stroke:#0000ff;" x="215.0525" xlink:href="#m17a119e336" y="86.835844"/>
     <use style="fill:#0000ff;stroke:#0000ff;" x="228.887211" xlink:href="#m17a119e336" y="84.114648"/>
     <use style="fill:#0000ff;stroke:#0000ff;" x="242.721921" xlink:href="#m17a119e336" y="82.239425"/>
     <use style="fill:#0000ff;stroke:#0000ff;" x="256.556632" xlink:href="#m17a119e336" y="80.698706"/>
     <use style="fill:#0000ff;stroke:#0000ff;" x="270.391343" xlink:href="#m17a119e336" y="79.883485"/>
     <use style="fill:#0000ff;stroke:#0000ff;" x="284.226054" xlink:href="#m17a119e336" y="80.005477"/>
     <use style="fill:#0000ff;stroke:#0000ff;" x="298.060764" xlink:href="#m17a119e336" y="79.960137"/>
     <use style="fill:#0000ff;stroke:#0000ff;" x="311.895475" xlink:href="#m17a119e336" y="79.406822"/>
     <use style="fill:#0000ff;stroke:#0000ff;" x="325.730186" xlink:href="#m17a119e336" y="79.433581"/>
     <use style="fill:#0000ff;stroke:#0000ff;" x="339.564897" xlink:href="#m17a119e336" y="80.616341"/>
     <use style="fill:#0000ff;stroke:#0000ff;" x="353.399607" xlink:href="#m17a119e336" y="83.074168"/>
     <use style="fill:#0000ff;stroke:#0000ff;" x="367.234318" xlink:href="#m17a119e336" y="86.92246"/>
    </g>
   </g>
   <g id="line2d_17">
    <path clip-path="url(#p8b683cdc07)" d="M 62.870682 173.428512 
L 76.705393 183.90331 
L 90.540103 187.535815 
L 104.374814 183.775601 
L 118.209525 172.470213 
L 132.044236 157.077631 
L 145.878946 140.537965 
L 159.713657 124.511876 
L 173.548368 110.272093 
L 187.383079 99.306571 
L 201.217789 91.657866 
L 215.0525 86.835844 
L 228.887211 84.114648 
L 242.721921 82.239425 
L 256.556632 80.698706 
L 270.391343 79.883485 
L 284.226054 80.005477 
L 298.060764 79.960137 
L 311.895475 79.406822 
L 325.730186 79.433581 
L 339.564897 80.616341 
L 353.399607 83.074168 
L 367.234318 86.92246 
" style="fill:none;stroke:#0000ff;stroke-linecap:square;stroke-width:3;"/>
   </g>
   <g id="patch_3">
    <path d="M 47.6525 284.4 
L 47.6525 7.2 
" style="fill:none;stroke:#000000;stroke-linecap:square;stroke-linejoin:miter;stroke-width:0.8;"/>
   </g>
   <g id="patch_4">
    <path d="M 382.4525 284.4 
L 382.4525 7.2 
" style="fill:none;stroke:#000000;stroke-linecap:square;stroke-linejoin:miter;stroke-width:0.8;"/>
   </g>
   <g id="patch_5">
    <path d="M 47.6525 284.4 
L 382.4525 284.4 
" style="fill:none;stroke:#000000;stroke-linecap:square;stroke-linejoin:miter;stroke-width:0.8;"/>
   </g>
   <g id="patch_6">
    <path d="M 47.6525 7.2 
L 382.4525 7.2 
" style="fill:none;stroke:#000000;stroke-linecap:square;stroke-linejoin:miter;stroke-width:0.8;"/>
   </g>
   <g id="legend_1">
    <g id="patch_7">
     <path d="M 54.6525 279.4 
L 280.997813 279.4 
Q 282.997813 279.4 282.997813 277.4 
L 282.997813 219.6875 
Q 282.997813 217.6875 280.997813 217.6875 
L 54.6525 217.6875 
Q 52.6525 217.6875 52.6525 219.6875 
L 52.6525 277.4 
Q 52.6525 279.4 54.6525 279.4 
z
" style="fill:#ffffff;opacity:0.8;stroke:#cccccc;stroke-linejoin:miter;"/>
    </g>
    <g id="line2d_18">
     <path d="M 56.6525 225.785938 
L 76.6525 225.785938 
" style="fill:none;stroke:#1f77b4;stroke-linecap:square;stroke-width:3;"/>
    </g>
    <g id="line2d_19"/>
    <g id="text_14">
     <!-- Ground truth of the real lemon -->
     <g transform="translate(84.6525 229.285938)scale(0.1 -0.1)">
      <defs>
       <path d="M 3809 666 
L 3809 1919 
L 2778 1919 
L 2778 2438 
L 4434 2438 
L 4434 434 
Q 4069 175 3628 42 
Q 3188 -91 2688 -91 
Q 1594 -91 976 548 
Q 359 1188 359 2328 
Q 359 3472 976 4111 
Q 1594 4750 2688 4750 
Q 3144 4750 3555 4637 
Q 3966 4525 4313 4306 
L 4313 3634 
Q 3963 3931 3569 4081 
Q 3175 4231 2741 4231 
Q 1884 4231 1454 3753 
Q 1025 3275 1025 2328 
Q 1025 1384 1454 906 
Q 1884 428 2741 428 
Q 3075 428 3337 486 
Q 3600 544 3809 666 
z
" id="DejaVuSans-47" transform="scale(0.015625)"/>
       <path d="M 2631 2963 
Q 2534 3019 2420 3045 
Q 2306 3072 2169 3072 
Q 1681 3072 1420 2755 
Q 1159 2438 1159 1844 
L 1159 0 
L 581 0 
L 581 3500 
L 1159 3500 
L 1159 2956 
Q 1341 3275 1631 3429 
Q 1922 3584 2338 3584 
Q 2397 3584 2469 3576 
Q 2541 3569 2628 3553 
L 2631 2963 
z
" id="DejaVuSans-72" transform="scale(0.015625)"/>
       <path d="M 1959 3097 
Q 1497 3097 1228 2736 
Q 959 2375 959 1747 
Q 959 1119 1226 758 
Q 1494 397 1959 397 
Q 2419 397 2687 759 
Q 2956 1122 2956 1747 
Q 2956 2369 2687 2733 
Q 2419 3097 1959 3097 
z
M 1959 3584 
Q 2709 3584 3137 3096 
Q 3566 2609 3566 1747 
Q 3566 888 3137 398 
Q 2709 -91 1959 -91 
Q 1206 -91 779 398 
Q 353 888 353 1747 
Q 353 2609 779 3096 
Q 1206 3584 1959 3584 
z
" id="DejaVuSans-6f" transform="scale(0.015625)"/>
       <path d="M 544 1381 
L 544 3500 
L 1119 3500 
L 1119 1403 
Q 1119 906 1312 657 
Q 1506 409 1894 409 
Q 2359 409 2629 706 
Q 2900 1003 2900 1516 
L 2900 3500 
L 3475 3500 
L 3475 0 
L 2900 0 
L 2900 538 
Q 2691 219 2414 64 
Q 2138 -91 1772 -91 
Q 1169 -91 856 284 
Q 544 659 544 1381 
z
M 1991 3584 
L 1991 3584 
z
" id="DejaVuSans-75" transform="scale(0.015625)"/>
       <path d="M 2375 4863 
L 2375 4384 
L 1825 4384 
Q 1516 4384 1395 4259 
Q 1275 4134 1275 3809 
L 1275 3500 
L 2222 3500 
L 2222 3053 
L 1275 3053 
L 1275 0 
L 697 0 
L 697 3053 
L 147 3053 
L 147 3500 
L 697 3500 
L 697 3744 
Q 697 4328 969 4595 
Q 1241 4863 1831 4863 
L 2375 4863 
z
" id="DejaVuSans-66" transform="scale(0.015625)"/>
      </defs>
      <use xlink:href="#DejaVuSans-47"/>
      <use x="77.490234" xlink:href="#DejaVuSans-72"/>
      <use x="116.353516" xlink:href="#DejaVuSans-6f"/>
      <use x="177.535156" xlink:href="#DejaVuSans-75"/>
      <use x="240.914062" xlink:href="#DejaVuSans-6e"/>
      <use x="304.292969" xlink:href="#DejaVuSans-64"/>
      <use x="367.769531" xlink:href="#DejaVuSans-20"/>
      <use x="399.556641" xlink:href="#DejaVuSans-74"/>
      <use x="438.765625" xlink:href="#DejaVuSans-72"/>
      <use x="479.878906" xlink:href="#DejaVuSans-75"/>
      <use x="543.257812" xlink:href="#DejaVuSans-74"/>
      <use x="582.466797" xlink:href="#DejaVuSans-68"/>
      <use x="645.845703" xlink:href="#DejaVuSans-20"/>
      <use x="677.632812" xlink:href="#DejaVuSans-6f"/>
      <use x="738.814453" xlink:href="#DejaVuSans-66"/>
      <use x="774.019531" xlink:href="#DejaVuSans-20"/>
      <use x="805.806641" xlink:href="#DejaVuSans-74"/>
      <use x="845.015625" xlink:href="#DejaVuSans-68"/>
      <use x="908.394531" xlink:href="#DejaVuSans-65"/>
      <use x="969.917969" xlink:href="#DejaVuSans-20"/>
      <use x="1001.705078" xlink:href="#DejaVuSans-72"/>
      <use x="1040.568359" xlink:href="#DejaVuSans-65"/>
      <use x="1102.091797" xlink:href="#DejaVuSans-61"/>
      <use x="1163.371094" xlink:href="#DejaVuSans-6c"/>
      <use x="1191.154297" xlink:href="#DejaVuSans-20"/>
      <use x="1222.941406" xlink:href="#DejaVuSans-6c"/>
      <use x="1250.724609" xlink:href="#DejaVuSans-65"/>
      <use x="1312.248047" xlink:href="#DejaVuSans-6d"/>
      <use x="1409.660156" xlink:href="#DejaVuSans-6f"/>
      <use x="1470.841797" xlink:href="#DejaVuSans-6e"/>
     </g>
    </g>
    <g id="line2d_20"/>
    <g id="line2d_21">
     <g>
      <use style="fill:#ff0000;stroke:#ff0000;" x="66.6525" xlink:href="#mb4b6088fc5" y="240.464063"/>
     </g>
    </g>
    <g id="text_15">
     <!-- Recovered spectrum of the real lemon -->
     <g transform="translate(84.6525 243.964063)scale(0.1 -0.1)">
      <defs>
       <path d="M 2834 3397 
L 2834 2853 
Q 2591 2978 2328 3040 
Q 2066 3103 1784 3103 
Q 1356 3103 1142 2972 
Q 928 2841 928 2578 
Q 928 2378 1081 2264 
Q 1234 2150 1697 2047 
L 1894 2003 
Q 2506 1872 2764 1633 
Q 3022 1394 3022 966 
Q 3022 478 2636 193 
Q 2250 -91 1575 -91 
Q 1294 -91 989 -36 
Q 684 19 347 128 
L 347 722 
Q 666 556 975 473 
Q 1284 391 1588 391 
Q 1994 391 2212 530 
Q 2431 669 2431 922 
Q 2431 1156 2273 1281 
Q 2116 1406 1581 1522 
L 1381 1569 
Q 847 1681 609 1914 
Q 372 2147 372 2553 
Q 372 3047 722 3315 
Q 1072 3584 1716 3584 
Q 2034 3584 2315 3537 
Q 2597 3491 2834 3397 
z
" id="DejaVuSans-73" transform="scale(0.015625)"/>
       <path d="M 1159 525 
L 1159 -1331 
L 581 -1331 
L 581 3500 
L 1159 3500 
L 1159 2969 
Q 1341 3281 1617 3432 
Q 1894 3584 2278 3584 
Q 2916 3584 3314 3078 
Q 3713 2572 3713 1747 
Q 3713 922 3314 415 
Q 2916 -91 2278 -91 
Q 1894 -91 1617 61 
Q 1341 213 1159 525 
z
M 3116 1747 
Q 3116 2381 2855 2742 
Q 2594 3103 2138 3103 
Q 1681 3103 1420 2742 
Q 1159 2381 1159 1747 
Q 1159 1113 1420 752 
Q 1681 391 2138 391 
Q 2594 391 2855 752 
Q 3116 1113 3116 1747 
z
" id="DejaVuSans-70" transform="scale(0.015625)"/>
      </defs>
      <use xlink:href="#DejaVuSans-52"/>
      <use x="64.982422" xlink:href="#DejaVuSans-65"/>
      <use x="126.505859" xlink:href="#DejaVuSans-63"/>
      <use x="181.486328" xlink:href="#DejaVuSans-6f"/>
      <use x="242.667969" xlink:href="#DejaVuSans-76"/>
      <use x="301.847656" xlink:href="#DejaVuSans-65"/>
      <use x="363.371094" xlink:href="#DejaVuSans-72"/>
      <use x="402.234375" xlink:href="#DejaVuSans-65"/>
      <use x="463.757812" xlink:href="#DejaVuSans-64"/>
      <use x="527.234375" xlink:href="#DejaVuSans-20"/>
      <use x="559.021484" xlink:href="#DejaVuSans-73"/>
      <use x="611.121094" xlink:href="#DejaVuSans-70"/>
      <use x="674.597656" xlink:href="#DejaVuSans-65"/>
      <use x="736.121094" xlink:href="#DejaVuSans-63"/>
      <use x="791.101562" xlink:href="#DejaVuSans-74"/>
      <use x="830.310547" xlink:href="#DejaVuSans-72"/>
      <use x="871.423828" xlink:href="#DejaVuSans-75"/>
      <use x="934.802734" xlink:href="#DejaVuSans-6d"/>
      <use x="1032.214844" xlink:href="#DejaVuSans-20"/>
      <use x="1064.001953" xlink:href="#DejaVuSans-6f"/>
      <use x="1125.183594" xlink:href="#DejaVuSans-66"/>
      <use x="1160.388672" xlink:href="#DejaVuSans-20"/>
      <use x="1192.175781" xlink:href="#DejaVuSans-74"/>
      <use x="1231.384766" xlink:href="#DejaVuSans-68"/>
      <use x="1294.763672" xlink:href="#DejaVuSans-65"/>
      <use x="1356.287109" xlink:href="#DejaVuSans-20"/>
      <use x="1388.074219" xlink:href="#DejaVuSans-72"/>
      <use x="1426.9375" xlink:href="#DejaVuSans-65"/>
      <use x="1488.460938" xlink:href="#DejaVuSans-61"/>
      <use x="1549.740234" xlink:href="#DejaVuSans-6c"/>
      <use x="1577.523438" xlink:href="#DejaVuSans-20"/>
      <use x="1609.310547" xlink:href="#DejaVuSans-6c"/>
      <use x="1637.09375" xlink:href="#DejaVuSans-65"/>
      <use x="1698.617188" xlink:href="#DejaVuSans-6d"/>
      <use x="1796.029297" xlink:href="#DejaVuSans-6f"/>
      <use x="1857.210938" xlink:href="#DejaVuSans-6e"/>
     </g>
    </g>
    <g id="line2d_22">
     <path d="M 56.6525 255.142188 
L 76.6525 255.142188 
" style="fill:none;stroke:#ff7f0e;stroke-linecap:square;stroke-width:3;"/>
    </g>
    <g id="line2d_23"/>
    <g id="text_16">
     <!-- Ground truth of the fake lemon -->
     <g transform="translate(84.6525 258.642188)scale(0.1 -0.1)">
      <defs>
       <path d="M 581 4863 
L 1159 4863 
L 1159 1991 
L 2875 3500 
L 3609 3500 
L 1753 1863 
L 3688 0 
L 2938 0 
L 1159 1709 
L 1159 0 
L 581 0 
L 581 4863 
z
" id="DejaVuSans-6b" transform="scale(0.015625)"/>
      </defs>
      <use xlink:href="#DejaVuSans-47"/>
      <use x="77.490234" xlink:href="#DejaVuSans-72"/>
      <use x="116.353516" xlink:href="#DejaVuSans-6f"/>
      <use x="177.535156" xlink:href="#DejaVuSans-75"/>
      <use x="240.914062" xlink:href="#DejaVuSans-6e"/>
      <use x="304.292969" xlink:href="#DejaVuSans-64"/>
      <use x="367.769531" xlink:href="#DejaVuSans-20"/>
      <use x="399.556641" xlink:href="#DejaVuSans-74"/>
      <use x="438.765625" xlink:href="#DejaVuSans-72"/>
      <use x="479.878906" xlink:href="#DejaVuSans-75"/>
      <use x="543.257812" xlink:href="#DejaVuSans-74"/>
      <use x="582.466797" xlink:href="#DejaVuSans-68"/>
      <use x="645.845703" xlink:href="#DejaVuSans-20"/>
      <use x="677.632812" xlink:href="#DejaVuSans-6f"/>
      <use x="738.814453" xlink:href="#DejaVuSans-66"/>
      <use x="774.019531" xlink:href="#DejaVuSans-20"/>
      <use x="805.806641" xlink:href="#DejaVuSans-74"/>
      <use x="845.015625" xlink:href="#DejaVuSans-68"/>
      <use x="908.394531" xlink:href="#DejaVuSans-65"/>
      <use x="969.917969" xlink:href="#DejaVuSans-20"/>
      <use x="1001.705078" xlink:href="#DejaVuSans-66"/>
      <use x="1036.910156" xlink:href="#DejaVuSans-61"/>
      <use x="1098.189453" xlink:href="#DejaVuSans-6b"/>
      <use x="1152.474609" xlink:href="#DejaVuSans-65"/>
      <use x="1213.998047" xlink:href="#DejaVuSans-20"/>
      <use x="1245.785156" xlink:href="#DejaVuSans-6c"/>
      <use x="1273.568359" xlink:href="#DejaVuSans-65"/>
      <use x="1335.091797" xlink:href="#DejaVuSans-6d"/>
      <use x="1432.503906" xlink:href="#DejaVuSans-6f"/>
      <use x="1493.685547" xlink:href="#DejaVuSans-6e"/>
     </g>
    </g>
    <g id="line2d_24"/>
    <g id="line2d_25">
     <g>
      <use style="fill:#0000ff;stroke:#0000ff;" x="66.6525" xlink:href="#m17a119e336" y="269.820313"/>
     </g>
    </g>
    <g id="text_17">
     <!-- Recovered spectrum of the fake lemon -->
     <g transform="translate(84.6525 273.320313)scale(0.1 -0.1)">
      <use xlink:href="#DejaVuSans-52"/>
      <use x="64.982422" xlink:href="#DejaVuSans-65"/>
      <use x="126.505859" xlink:href="#DejaVuSans-63"/>
      <use x="181.486328" xlink:href="#DejaVuSans-6f"/>
      <use x="242.667969" xlink:href="#DejaVuSans-76"/>
      <use x="301.847656" xlink:href="#DejaVuSans-65"/>
      <use x="363.371094" xlink:href="#DejaVuSans-72"/>
      <use x="402.234375" xlink:href="#DejaVuSans-65"/>
      <use x="463.757812" xlink:href="#DejaVuSans-64"/>
      <use x="527.234375" xlink:href="#DejaVuSans-20"/>
      <use x="559.021484" xlink:href="#DejaVuSans-73"/>
      <use x="611.121094" xlink:href="#DejaVuSans-70"/>
      <use x="674.597656" xlink:href="#DejaVuSans-65"/>
      <use x="736.121094" xlink:href="#DejaVuSans-63"/>
      <use x="791.101562" xlink:href="#DejaVuSans-74"/>
      <use x="830.310547" xlink:href="#DejaVuSans-72"/>
      <use x="871.423828" xlink:href="#DejaVuSans-75"/>
      <use x="934.802734" xlink:href="#DejaVuSans-6d"/>
      <use x="1032.214844" xlink:href="#DejaVuSans-20"/>
      <use x="1064.001953" xlink:href="#DejaVuSans-6f"/>
      <use x="1125.183594" xlink:href="#DejaVuSans-66"/>
      <use x="1160.388672" xlink:href="#DejaVuSans-20"/>
      <use x="1192.175781" xlink:href="#DejaVuSans-74"/>
      <use x="1231.384766" xlink:href="#DejaVuSans-68"/>
      <use x="1294.763672" xlink:href="#DejaVuSans-65"/>
      <use x="1356.287109" xlink:href="#DejaVuSans-20"/>
      <use x="1388.074219" xlink:href="#DejaVuSans-66"/>
      <use x="1423.279297" xlink:href="#DejaVuSans-61"/>
      <use x="1484.558594" xlink:href="#DejaVuSans-6b"/>
      <use x="1538.84375" xlink:href="#DejaVuSans-65"/>
      <use x="1600.367188" xlink:href="#DejaVuSans-20"/>
      <use x="1632.154297" xlink:href="#DejaVuSans-6c"/>
      <use x="1659.9375" xlink:href="#DejaVuSans-65"/>
      <use x="1721.460938" xlink:href="#DejaVuSans-6d"/>
      <use x="1818.873047" xlink:href="#DejaVuSans-6f"/>
      <use x="1880.054688" xlink:href="#DejaVuSans-6e"/>
     </g>
    </g>
   </g>
  </g>
 </g>
 <defs>
  <clipPath id="p8b683cdc07">
   <rect height="277.2" width="334.8" x="47.6525" y="7.2"/>
  </clipPath>
 </defs>
</svg>
